# xmcd
#
# Track frame offsets:
#	150
#	14540
#	33542
#	46121
#	63199
#	78921
#	96259
#	108985
#	129624
#	147715
#	164768
#	179356
#	199641
#	217925
#
# Disc length: 3134 seconds
#
# Revision: 1
# Processed by: cddbd v1.5.2PL0 Copyright (c) Steve Scherf et al.
# Submitted via: audiograbber 1.83.01
#
DISCID=c50c3c0e
DTITLE=Kamahl - The Great Kamahl [Disc 1]
DYEAR=2002
DGENRE=Easy Listening
TTITLE0=Evergreen
TTITLE1=She Believes In Me
TTITLE2=Time In A Bottle
TTITLE3=Love United
TTITLE4=Unchained Melody
TTITLE5=Can You Feel The Love Tonight
TTITLE6=You Make Me Feel So Young
TTITLE7=Love Changes Everything
TTITLE8=Begin The Beguine
TTITLE9=All I Ask Of You
TTITLE10=Annie's Song
TTITLE11=Feelings
TTITLE12=Loving And Free
TTITLE13=After The Loving
EXTD=
EXTT0=
EXTT1=
EXTT2=
EXTT3=
EXTT4=
EXTT5=
EXTT6=
EXTT7=
EXTT8=
EXTT9=
EXTT10=
EXTT11=
EXTT12=
EXTT13=
PLAYORDER=
